<svg xmlns="http://www.w3.org/2000/svg" viewBox="0 0 60 60" width="100%" height="100%">
  <path fill="currentColor" fill-rule="evenodd" d="M20,12.5 C20,11.1192881 21.1192881,10 22.5,10 L28.75,9.999 L28.75,1.25 C28.75,0.559644063 29.3096441,1.26816328e-16 30,0 C30.6903559,-1.26816328e-16 31.25,0.559644063 31.25,1.25 L31.25,9.999 L37.5,10 C38.8807119,10 40,11.1192881 40,12.5 L40,55 L56.25,55 C56.9403559,55 57.5,55.5596441 57.5,56.25 C57.5,56.9403559 56.9403559,57.5 56.25,57.5 L3.75,57.5 C3.05964406,57.5 2.5,56.9403559 2.5,56.25 C2.5,55.5596441 3.05964406,55 3.75,55 L20,55 L20,12.5 Z M15,17.5 C16.3807119,17.5 17.5,18.6192881 17.5,20 L17.5,55 L7.5,55 L7.5,20 C7.5,18.6192881 8.61928813,17.5 10,17.5 L15,17.5 Z M42.5,22.5 L51.118034,26.809017 C51.9649941,27.232497 52.5,28.0981548 52.5,29.045085 L52.5,55 L42.5,55 L42.5,22.5 Z M13.75,45 L11.25,45 C10.5596441,45 10,45.5596441 10,46.25 L10,46.25 L10,48.75 C10,49.4403559 10.5596441,50 11.25,50 L11.25,50 L13.75,50 C14.4403559,50 15,49.4403559 15,48.75 L15,48.75 L15,46.25 C15,45.5596441 14.4403559,45 13.75,45 L13.75,45 Z M48.75,45 L46.25,45 C45.5596441,45 45,45.5596441 45,46.25 L45,46.25 L45,48.75 C45,49.4403559 45.5596441,50 46.25,50 L46.25,50 L48.75,50 C49.4403559,50 50,49.4403559 50,48.75 L50,48.75 L50,46.25 C50,45.5596441 49.4403559,45 48.75,45 L48.75,45 Z M13.75,37.5 L11.25,37.5 C10.5596441,37.5 10,38.0596441 10,38.75 L10,38.75 L10,41.25 C10,41.9403559 10.5596441,42.5 11.25,42.5 L11.25,42.5 L13.75,42.5 C14.4403559,42.5 15,41.9403559 15,41.25 L15,41.25 L15,38.75 C15,38.0596441 14.4403559,37.5 13.75,37.5 L13.75,37.5 Z M48.75,37.5 L46.25,37.5 C45.5596441,37.5 45,38.0596441 45,38.75 L45,38.75 L45,41.25 C45,41.9403559 45.5596441,42.5 46.25,42.5 L46.25,42.5 L48.75,42.5 C49.4403559,42.5 50,41.9403559 50,41.25 L50,41.25 L50,38.75 C50,38.0596441 49.4403559,37.5 48.75,37.5 L48.75,37.5 Z M36.25,35 L23.75,35 C23.0596441,35 22.5,35.5596441 22.5,36.25 L22.5,36.25 L22.5,41.25 C22.5,41.9403559 23.0596441,42.5 23.75,42.5 L23.75,42.5 L36.25,42.5 C36.9403559,42.5 37.5,41.9403559 37.5,41.25 L37.5,41.25 L37.5,36.25 C37.5,35.5596441 36.9403559,35 36.25,35 L36.25,35 Z M13.75,30 L11.25,30 C10.5596441,30 10,30.5596441 10,31.25 L10,31.25 L10,33.75 C10,34.4403559 10.5596441,35 11.25,35 L11.25,35 L13.75,35 C14.4403559,35 15,34.4403559 15,33.75 L15,33.75 L15,31.25 C15,30.5596441 14.4403559,30 13.75,30 L13.75,30 Z M48.75,30 L46.25,30 C45.5596441,30 45,30.5596441 45,31.25 L45,31.25 L45,33.75 C45,34.4403559 45.5596441,35 46.25,35 L46.25,35 L48.75,35 C49.4403559,35 50,34.4403559 50,33.75 L50,33.75 L50,31.25 C50,30.5596441 49.4403559,30 48.75,30 L48.75,30 Z M36.25,25 L23.75,25 C23.0596441,25 22.5,25.5596441 22.5,26.25 L22.5,26.25 L22.5,31.25 C22.5,31.9403559 23.0596441,32.5 23.75,32.5 L23.75,32.5 L36.25,32.5 C36.9403559,32.5 37.5,31.9403559 37.5,31.25 L37.5,31.25 L37.5,26.25 C37.5,25.5596441 36.9403559,25 36.25,25 L36.25,25 Z M13.75,22.5 L11.25,22.5 C10.5596441,22.5 10,23.0596441 10,23.75 L10,23.75 L10,26.25 C10,26.9403559 10.5596441,27.5 11.25,27.5 L11.25,27.5 L13.75,27.5 C14.4403559,27.5 15,26.9403559 15,26.25 L15,26.25 L15,23.75 C15,23.0596441 14.4403559,22.5 13.75,22.5 L13.75,22.5 Z M36.25,15 L23.75,15 C23.0596441,15 22.5,15.5596441 22.5,16.25 L22.5,16.25 L22.5,21.25 C22.5,21.9403559 23.0596441,22.5 23.75,22.5 L23.75,22.5 L36.25,22.5 C36.9403559,22.5 37.5,21.9403559 37.5,21.25 L37.5,21.25 L37.5,16.25 C37.5,15.5596441 36.9403559,15 36.25,15 L36.25,15 Z"/>
</svg>
