<svg xmlns="http://www.w3.org/2000/svg" viewBox="0 0 60 60" width="100%" height="100%">
  <g fill="none" fill-rule="evenodd" transform="translate(2.5 8.558)">
    <path fill="currentColor" d="M54.4472238,40.4948547 C54.4612472,40.9906572 54.473414,41.6255563 54.4837244,42.399552 C54.5034423,43.8787621 53.320279,45.0938727 51.8410687,45.1135771 L40,45.1138148 C38.5206658,45.1138148 37.3214286,43.9145775 37.3214286,42.4352433 L37.3214286,35.6161695 C33.2291667,37.1991104 29.9553571,37.9905808 27.5,37.9905808 C28.5170422,37.9905808 29.3415179,37.1932857 29.3415179,36.2097724 C29.3415179,35.2754347 28.5974286,34.509159 27.6510331,34.4348672 L27.3489669,34.4230606 C26.4025714,34.3487688 25.6584821,33.5824931 25.6584821,32.6481554 C25.6584821,31.7138177 26.4025714,30.947542 27.3489669,30.8732503 L27.5,30.8673469 C38.5491071,30.8673469 34.8660714,17.8080848 42.2321429,16.6208791 C50.9105695,15.2221583 53.9906814,24.3535816 54.4472238,40.4948547 Z M42.2321429,-1.05214982e-13 C46.3003118,-1.05214982e-13 49.5982143,3.18918045 49.5982143,7.12323391 C49.5982143,11.0572874 46.3003118,14.2464678 42.2321429,14.2464678 C38.1639739,14.2464678 34.8660714,11.0572874 34.8660714,7.12323391 C34.8660714,3.18918045 38.1639739,-1.05214982e-13 42.2321429,-1.05214982e-13 Z"/>
    <path fill="currentColor" d="M0.552989356,40.4948547 C1.00953177,24.3535816 4.08964363,15.2221583 12.7680703,16.6208791 C20.1341417,17.8080848 16.451106,30.8673469 27.5002132,30.8673469 L27.4272459,30.866 L27.2931292,30.8742189 C26.4122434,30.9595313 25.7143195,31.6451587 25.6432939,32.5017995 L25.6373371,32.6460828 C25.6373371,33.6295962 26.4618127,34.4268913 27.4788549,34.4268913 L27.629888,34.4327946 C28.5762835,34.5070864 29.3203728,35.2733621 29.3203728,36.2076998 C29.3203728,37.1912131 28.4958971,37.9885083 27.4794302,37.990562 C25.0263931,37.9861126 21.7595113,37.1946484 17.6787846,35.6161695 L17.6787846,35.6161695 L17.6787846,42.4352433 C17.6787846,43.9145775 16.4795473,45.1138148 15.0002132,45.1138148 L15.0002132,45.1138148 L3.15914448,45.1135771 C1.67993417,45.0938727 0.496770914,43.8787621 0.516488789,42.399552 C0.526799141,41.6255563 0.538965997,40.9906572 0.552989356,40.4948547 Z M12.7678571,0 C16.8360261,0 20.1339286,3.18918045 20.1339286,7.12323391 C20.1339286,11.0572874 16.8360261,14.2464678 12.7678571,14.2464678 C8.69968823,14.2464678 5.40178571,11.0572874 5.40178571,7.12323391 C5.40178571,3.18918045 8.69968823,0 12.7678571,0 Z"/>
  </g>
</svg>
